HIERARCHY
ROOT root
{
	OFFSET 0.000000 0.000000 0.000000
	CHANNELS 6 Xposition Yposition Zposition Zrotation Yrotation Xrotation
	JOINT lhip
	{
		OFFSET 0.058581 -0.082280 -0.017664
		CHANNELS 3 Zrotation Yrotation Xrotation
		JOINT lknee
		{
			OFFSET 0.043451 -0.386469 0.008037
			CHANNELS 3 Zrotation Yrotation Xrotation
			JOINT lankle
			{
				OFFSET -0.014790 -0.426874 -0.037428
				CHANNELS 3 Zrotation Yrotation Xrotation
				JOINT ltoe
				{
					OFFSET 0.041054 -0.060286 0.122042
					CHANNELS 3 Zrotation Yrotation Xrotation
					End Site
					{
						OFFSET 0.000000 0.000000 0.000000
					}
				}
			}
		}
	}
	JOINT rhip
	{
		OFFSET -0.060310 -0.090513 -0.013543
		CHANNELS 3 Zrotation Yrotation Xrotation
		JOINT rknee
		{
			OFFSET -0.043257 -0.383688 -0.004843
			CHANNELS 3 Zrotation Yrotation Xrotation
			JOINT rankle
			{
				OFFSET 0.019056 -0.420046 -0.034562
				CHANNELS 3 Zrotation Yrotation Xrotation
				JOINT rtoe
				{
					OFFSET -0.034840 -0.062106 0.130323
					CHANNELS 3 Zrotation Yrotation Xrotation
					End Site
					{
						OFFSET 0.000000 0.000000 0.000000
					}
				}
			}
		}
	}
	JOINT lowerback
	{
		OFFSET 0.004439 0.124404 -0.038385
		CHANNELS 3 Zrotation Yrotation Xrotation
		JOINT upperback
		{
			OFFSET 0.004488 0.137956 0.026820
			CHANNELS 3 Zrotation Yrotation Xrotation
			JOINT chest
			{
				OFFSET -0.002265 0.056032 0.002855
				CHANNELS 3 Zrotation Yrotation Xrotation
				JOINT lowerneck
				{
					OFFSET -0.013390 0.211636 -0.033468
					CHANNELS 3 Zrotation Yrotation Xrotation
					JOINT upperneck
					{
						OFFSET 0.010113 0.088937 0.050410
						CHANNELS 3 Zrotation Yrotation Xrotation
						End Site
						{
							OFFSET 0.000000 0.000000 0.000000
						}
					}
				}
				JOINT lclavicle
				{
					OFFSET 0.071702 0.114000 -0.018898
					CHANNELS 3 Zrotation Yrotation Xrotation
					JOINT lshoulder
					{
						OFFSET 0.122921 0.045205 -0.019046
						CHANNELS 3 Zrotation Yrotation Xrotation
						JOINT lelbow
						{
							OFFSET 0.255332 -0.015649 -0.022946
							CHANNELS 3 Zrotation Yrotation Xrotation
							JOINT lwrist
							{
								OFFSET 0.265709 0.012698 -0.007375
								CHANNELS 3 Zrotation Yrotation Xrotation
								End Site
								{
									OFFSET 0.000000 0.000000 0.000000
								}
							}
						}
					}
				}
				JOINT rclavicle
				{
					OFFSET -0.082954 0.112472 -0.023707
					CHANNELS 3 Zrotation Yrotation Xrotation
					JOINT rshoulder
					{
						OFFSET -0.113228 0.046853 -0.008472
						CHANNELS 3 Zrotation Yrotation Xrotation
						JOINT relbow
						{
							OFFSET -0.260127 -0.014369 -0.031269
							CHANNELS 3 Zrotation Yrotation Xrotation
							JOINT rwrist
							{
								OFFSET -0.269108 0.006794 -0.006027
								CHANNELS 3 Zrotation Yrotation Xrotation
								End Site
								{
									OFFSET 0.000000 0.000000 0.000000
								}
							}
						}
					}
				}
			}
		}
	}
}
MOTION
Frames: 8
Frame Time: 0.033333
1.709257 0.750963 0.830680 -88.599033 1.468819 105.268860 5.304601 -9.668941 -43.673576 -11.164629 -0.529176 67.306385 6.452034 15.804573 -43.109367 0.000000 -0.000000 0.000000 -0.159997 8.683195 -44.667397 0.398130 -3.784113 67.435709 3.911503 -15.284533 -43.864118 0.000000 -0.000000 0.000000 -2.981852 1.342949 24.448041 3.021169 0.131801 -6.792078 0.603158 -1.624015 5.838494 2.752123 7.157883 -19.962081 -0.041960 -3.954627 -7.825925 -23.726841 1.231203 2.230216 -53.509283 -3.664551 9.417778 7.612555 -29.729647 7.582011 2.948759 -3.912627 -13.260473 24.206364 -0.246110 0.161843 55.387882 1.880387 13.404485 -14.634992 28.845735 2.086476 5.783626 3.274989 -9.699786 
1.690643 0.751603 0.815461 -88.685305 0.957353 103.501785 4.159518 -10.188801 -41.727591 -11.622117 -0.162779 71.128773 5.548945 15.890410 -44.775107 0.000000 -0.000000 0.000000 0.305325 8.678339 -42.660348 0.125905 -2.973855 71.379673 4.453224 -15.417764 -45.262876 0.000000 -0.000000 0.000000 -3.270213 1.615432 26.972045 2.995401 -0.615773 -6.696997 0.635586 -1.819918 5.239480 2.666799 7.269157 -20.929388 -0.158408 -3.987896 -8.156407 -24.643489 -0.315577 1.670970 -53.453973 -3.763453 9.225514 7.921243 -27.967970 6.558936 4.293360 -4.298855 -12.910051 25.135969 1.793335 -0.612092 54.925552 2.738441 13.838650 -14.154329 27.924919 2.114156 4.957956 3.136142 -8.850172 
1.666752 0.751639 0.807091 -89.326133 1.043581 103.570845 3.594519 -10.397008 -39.997208 -11.596873 0.090564 72.996353 5.276078 16.794651 -45.914525 0.000000 -0.000000 0.000000 1.017988 9.239321 -41.336705 -0.015760 -2.435483 73.335017 4.996098 -16.255269 -45.653630 0.000000 -0.000000 0.000000 -3.289663 1.168152 26.554320 2.621903 -0.144399 -8.642219 0.509064 -1.782540 5.836353 2.860306 7.772770 -20.879391 -0.639449 -2.828207 -7.565714 -25.156963 0.018396 1.657386 -52.894473 -3.699191 9.153904 6.272157 -29.450359 7.987908 3.740898 -3.566801 -11.509599 25.352556 1.747832 -0.564448 54.650151 2.744968 14.557465 -13.270340 30.343738 3.140148 5.193936 2.827250 -8.366339 
1.631430 0.751601 0.815415 -89.717747 1.081729 101.452957 1.444703 -9.359527 -32.433900 -11.466371 -1.853769 70.425495 4.660964 17.385749 -46.511340 0.000000 -0.000000 0.000000 2.545435 7.947926 -34.260722 -0.248156 -1.826444 70.672430 5.189735 -16.467563 -45.345710 0.000000 -0.000000 0.000000 -2.961355 1.090697 26.557438 2.167190 -0.308369 -8.881103 0.319383 -1.692883 5.494268 2.957952 6.852983 -20.131343 -0.230675 -3.009386 -6.778848 -25.087312 0.154917 1.964182 -52.345901 -2.531720 9.229259 4.525566 -33.069909 10.383244 4.454168 -4.814380 -10.483679 25.054568 2.224260 -0.911092 54.269375 0.154811 15.134041 -12.416988 35.556681 4.565089 4.332709 3.783756 -8.156305 
1.582631 0.751151 0.841146 -90.627881 1.624492 97.342935 -0.515421 -7.551414 -20.130226 -11.280138 -4.811738 64.435315 2.792595 16.757588 -43.317311 0.000000 -0.000000 0.000000 4.869727 5.823411 -22.452112 -0.043985 0.407572 64.161356 4.789325 -15.498032 -41.673366 0.000000 -0.000000 0.000000 -2.568450 1.244805 24.033803 2.103032 -0.866613 -5.150867 0.260299 -1.201737 4.891435 3.346613 6.679073 -17.971678 -0.265155 -1.958075 -5.726929 -24.218010 0.031121 1.761022 -53.008783 -1.142290 9.352336 3.046405 -36.216436 11.690317 5.601162 -6.075678 -11.239744 23.601571 2.426839 -1.630455 54.498389 -2.221353 15.731003 -11.243780 40.966410 6.963749 3.747466 4.714523 -7.113390 
1.524744 0.751881 0.883718 -91.045007 1.802005 95.033209 -0.915074 -7.068072 -10.139380 -11.282927 -6.377184 56.690249 1.630654 14.465973 -32.453096 0.000000 -0.000000 0.000000 5.192314 4.686088 -12.549115 1.136332 0.944792 55.846738 4.485669 -13.983527 -30.697278 0.000000 -0.000000 0.000000 -3.089198 1.130410 17.047328 2.412453 -1.580768 -2.345928 0.160704 -1.392436 5.841261 4.102231 6.602182 -12.880595 -0.018509 0.042671 -2.237397 -22.619212 2.079823 1.939391 -54.573624 -1.020345 10.254576 1.991286 -36.904976 12.387432 6.190824 -7.003941 -11.600929 22.349748 -0.262216 -2.402504 55.033957 -2.647745 17.043186 -8.676296 43.757307 10.925075 4.924080 5.774945 -6.427932 
1.457670 0.751447 0.940074 -91.188434 1.937140 91.781456 -0.050940 -5.829373 -0.114432 -10.984183 -7.463793 46.785227 -1.241735 9.621325 -11.212814 0.000000 -0.000000 0.000000 4.119674 1.950940 -2.890347 1.035491 0.135766 46.829558 2.630829 -9.389830 -9.060729 0.000000 -0.000000 0.000000 -3.702612 1.237374 9.764491 2.889704 -2.928599 3.036420 0.316495 -1.360609 4.709560 3.768469 5.091670 -4.786980 1.702154 2.875011 -0.716905 -21.905618 3.155496 3.069136 -56.111235 0.036460 10.972190 2.973613 -38.057046 12.654836 3.885723 -6.317740 -12.217080 20.855646 -1.937323 -0.758475 56.148024 -3.673110 16.870333 -8.773085 46.070611 12.217742 6.759444 4.764813 -8.649161 
1.395435 0.748999 1.001058 -91.369744 1.780707 89.391024 1.090453 -3.771710 5.016776 -7.590040 -6.602576 38.365832 -10.994914 5.610550 14.538445 0.000000 -0.000000 0.000000 1.912157 -0.536318 2.161815 -1.051044 -2.696112 39.997680 6.088986 -5.519291 17.378727 0.000000 -0.000000 0.000000 -3.951628 0.923927 5.659009 2.475906 -3.745803 5.404450 0.943402 -1.127519 2.760898 1.932708 3.218478 2.604430 4.067457 6.145846 0.023607 -21.328081 2.894385 5.587374 -58.762052 1.506383 8.434467 5.238808 -38.747413 9.087264 2.676375 -8.217416 -6.270408 18.637246 -1.958284 1.347359 58.347804 -6.009853 14.165759 -7.368956 47.358769 10.841956 6.199810 4.832313 -7.749374 
